<?xml version="1.0" encoding="UTF-8"?>
<svg version="1.1" viewBox="0 0 512 512" xmlns="http://www.w3.org/2000/svg" xmlns:xlink="http://www.w3.org/1999/xlink">
    <!--Generated by IJSVG (https://github.com/curthard89/IJSVG)-->
    <g style="fill: #fff;">
        <path d="M486.4,0h-460.8c-14.138,0 -25.6,11.461 -25.6,25.6v341.333c0,14.138 11.461,25.6 25.6,25.6h460.8c14.138,0 25.6,-11.461 25.6,-25.6v-341.333c0,-14.138 -11.461,-25.6 -25.6,-25.6Zm8.533,366.934c0,4.713 -3.82,8.533 -8.533,8.533h-460.8c-4.713,0 -8.533,-3.82 -8.533,-8.533v-341.334c0,-4.713 3.82,-8.533 8.533,-8.533h460.8c4.713,0 8.533,3.82 8.533,8.533v341.334Z" transform="translate(0, 59.733)"></path>
        <path d="M436.343,0.561c-2.255,-0.197 -4.496,0.51 -6.229,1.966l-196.865,165.375c-6.349,5.337 -15.616,5.337 -21.965,0l-196.863,-165.376c-2.335,-1.96 -5.539,-2.526 -8.404,-1.484c-2.865,1.042 -4.957,3.534 -5.487,6.537c-0.53,3.003 0.582,6.06 2.917,8.02l196.864,165.367c12.688,10.683 31.224,10.683 43.913,0l196.863,-165.366c1.734,-1.455 2.818,-3.539 3.015,-5.794c0.197,-2.255 -0.51,-4.496 -1.966,-6.229c-1.454,-1.735 -3.538,-2.819 -5.793,-3.016Z" transform="translate(33.733, 93.337)"></path>
        <path d="M130.652,0.674c-3.021,-0.674 -6.169,0.34 -8.229,2.65l-119.467,128c-2.162,2.214 -2.956,5.426 -2.074,8.392c0.882,2.967 3.301,5.223 6.321,5.897c3.021,0.674 6.169,-0.34 8.229,-2.65l119.467,-128c2.162,-2.214 2.956,-5.426 2.074,-8.392c-0.882,-2.966 -3.3,-5.223 -6.321,-5.897Z" transform="translate(33.472, 272.456)"></path>
        <path d="M15.432,3.324c-2.059,-2.31 -5.208,-3.324 -8.229,-2.65c-3.021,0.674 -5.439,2.931 -6.321,5.897c-0.882,2.967 -0.088,6.178 2.074,8.392l119.467,128c3.24,3.318 8.536,3.442 11.927,0.278c3.391,-3.164 3.635,-8.456 0.549,-11.918l-119.467,-127.999Z" transform="translate(340.673, 272.456)"></path>
    </g>
</svg>