<?xml version="1.0" encoding="UTF-8"?>
<svg version="1.1" viewBox="0 0 48 48" xmlns="http://www.w3.org/2000/svg" xmlns:xlink="http://www.w3.org/1999/xlink">
    <!--Generated by IJSVG (https://github.com/curthard89/IJSVG)-->
    <g style="fill: none;">
        <path d="M0,0h48v48h-48Z"></path>
        <path style="fill: #fff;" d="M34,25c-2.49,0 -4.89,-0.4 -7.14,-1.14c-0.69,-0.22 -1.48,-0.06 -2.03,0.49l-4.4,4.41c-5.67,-2.88 -10.29,-7.51 -13.18,-13.17l4.4,-4.41c0.55,-0.55 0.71,-1.34 0.49,-2.03c-0.74,-2.25 -1.14,-4.66 -1.14,-7.15c0,-1.11 -0.89,-2 -2,-2h-7c-1.11,0 -2,0.89 -2,2c0,18.78 15.22,34 34,34c1.11,0 2,-0.89 2,-2v-7c0,-1.11 -0.89,-2 -2,-2Zm-2,-7h4c0,-9.94 -8.06,-18 -18,-18v4c7.73,0 14,6.27 14,14Zm-8,0h4c0,-5.52 -4.48,-10 -10,-10v4c3.31,0 6,2.69 6,6Z" transform="translate(6, 6)"></path>
    </g>
</svg>