<?xml version="1.0" encoding="UTF-8"?>
<svg version="1.1" viewBox="0 0 48 48" xmlns="http://www.w3.org/2000/svg" xmlns:xlink="http://www.w3.org/1999/xlink">
    <!--Generated by IJSVG (https://github.com/curthard89/IJSVG)-->
    <g fill="none" stroke="#000000" stroke-linecap="round" stroke-linejoin="round" stroke-width="2">
        <path stroke="#fff" d="M12.6332,2.73367c2.73367,2.73367 2.73367,7.16582 0,9.89949c-2.73367,2.73367 -7.16582,2.73367 -9.89949,1.77636e-15c-2.73367,-2.73367 -2.73367,-7.16582 -3.55271e-15,-9.89949c2.73367,-2.73367 7.16582,-2.73367 9.89949,-1.77636e-15" transform="translate(16.3166, 1.31658)"></path>
        <path stroke="#fff" d="M0,0v25" transform="translate(24, 16)"></path>
        <path stroke="#fff" d="M4.2,4.2c-2.3196,0 -4.2,-1.8804 -4.2,-4.2" transform="translate(19.8, 9)"></path>
        <path stroke="#fff" d="M22.9994,0.156303c7.50887,0.481442 13.0006,2.02005 13.0006,3.8437c0,2.20914 -8.05888,4 -18,4c-9.94112,0 -18,-1.79086 -18,-4c0,-1.9036 5.98424,-3.59576 14,-4" transform="translate(6, 38)"></path>
    </g>
</svg>