<?xml version="1.0" encoding="UTF-8"?>
<svg version="1.1" viewBox="0 0 120 120" xmlns="http://www.w3.org/2000/svg" xmlns:xlink="http://www.w3.org/1999/xlink">
    <!--Generated by IJSVG (https://github.com/curthard89/IJSVG)-->
    <g fill="#FFFFFF">
        <path fill="#FFFFFF" stroke="#FFFFFF" stroke-width="1" d="M0,0v0"></path>
        <path d="M37,120c-19.712,0 -37,-28.272 -37,-60.5c0,-31.696 17.288,-59.5 37,-59.5c1.1,0 2,0.896 2,2c0,1.104 -0.9,2 -2,2c-17.58,0 -33,25.932 -33,55.5c0,29.572 15.728,56.5 33,56.5c1.1,0 2,0.9 2,2c0,1.1 -0.9,2 -2,2Z" transform="translate(32.728, 0)"></path>
        <path d="M22,48c-10.384,0 -22,-10.476 -22,-24.5c0,-13.848 11.588,-23.5 22,-23.5c1.1,0 2,0.896 2,2c0,1.104 -0.9,2 -2,2c-8.508,0 -18,8.008 -18,19.5c0,11.548 9.676,20.5 18,20.5c1.1,0 2,0.9 2,2c0,1.1 -0.9,2 -2,2Z" transform="translate(47.728, 36)"></path>
        <path d="M9.952,40h-7.952c-1.104,0 -2,-0.9 -2,-2v-36c0,-1.1 0.896,-2 2,-2h7.952c5.444,0 10.048,4.352 10.048,9.5v20c-0.004,5.4 -4.884,10.5 -10.048,10.5Zm-5.956,-4h5.952c2.936,0 6.048,-3.34 6.048,-6.5v-20c0,-2.884 -2.884,-5.5 -6.048,-5.5h-5.952v32Z" transform="translate(67.276, 80)"></path>
        <path d="M9.952,40h-7.952c-1.104,0 -2,-0.896 -2,-2v-36c0,-1.104 0.896,-2 2,-2h7.952c5.444,0 10.048,4.352 10.048,9.5v20c-0.004,5.4 -4.884,10.5 -10.048,10.5Zm-5.956,-4h5.952c2.936,0 6.048,-3.34 6.048,-6.5v-20c0,-2.88 -2.884,-5.5 -6.048,-5.5h-5.952v32Z" transform="translate(67.276, 0)"></path>
    </g>
</svg>