<?xml version="1.0" encoding="UTF-8"?>
<svg version="1.1" viewBox="-23 -21 682 682.667" xmlns="http://www.w3.org/2000/svg" xmlns:xlink="http://www.w3.org/1999/xlink">
    <!--Generated by IJSVG (https://github.com/curthard89/IJSVG)-->
    <g fill="#000000" fill-rule="evenodd">
        <path d="M544.137,93.0078c-59.875,-59.9453 -139.504,-92.9727 -224.336,-93.0078c-174.805,0 -317.07,142.262 -317.141,317.113c-0.023437,55.8945 14.5781,110.457 42.332,158.551l-44.9922,164.336l168.121,-44.1016c46.3242,25.2695 98.4766,38.5859 151.551,38.6016h0.132813c174.785,0 317.066,-142.273 317.133,-317.133c0.035156,-84.7422 -32.9219,-164.418 -92.8008,-224.359Zm-224.336,487.934h-0.109375c-47.2969,-0.019531 -93.6836,-12.7305 -134.16,-36.7422l-9.62109,-5.71484l-99.7656,26.1719l26.6289,-97.2695l-6.26953,-9.97266c-26.3867,-41.9688 -40.3203,-90.4766 -40.2969,-140.281c0.054688,-145.332 118.305,-263.57 263.699,-263.57c70.4062,0.023438 136.59,27.4766 186.355,77.3008c49.7656,49.8242 77.1562,116.051 77.1328,186.484c-0.0625,145.344 -118.305,263.594 -263.594,263.594Zm144.586,-197.418c-7.92188,-3.96875 -46.8828,-23.1328 -54.1484,-25.7812c-7.25781,-2.64453 -12.5469,-3.96094 -17.8242,3.96875c-5.28516,7.92969 -20.4688,25.7812 -25.0938,31.0664c-4.625,5.28906 -9.24219,5.95312 -17.168,1.98438c-7.92578,-3.96484 -33.457,-12.3359 -63.7266,-39.332c-23.5547,-21.0117 -39.457,-46.9609 -44.082,-54.8906c-4.61719,-7.9375 -0.039062,-11.8125 3.47656,-16.1719c8.57813,-10.6523 17.168,-21.8203 19.8086,-27.1055c2.64453,-5.28906 1.32031,-9.91797 -0.664062,-13.8828c-1.97656,-3.96484 -17.8242,-42.9688 -24.4258,-58.8398c-6.4375,-15.4453 -12.9648,-13.3594 -17.832,-13.6016c-4.61719,-0.230469 -9.90234,-0.277344 -15.1875,-0.277344c-5.28125,0 -13.8672,1.98047 -21.1328,9.91797c-7.26172,7.93359 -27.7305,27.1016 -27.7305,66.1055c0,39.0039 28.3945,76.6836 32.3555,81.9727c3.96094,5.28906 55.8789,85.3281 135.367,119.648c18.9062,8.17187 33.6641,13.043 45.1758,16.6953c18.9844,6.03125 36.2539,5.17969 49.9102,3.14062c15.2266,-2.27734 46.8789,-19.1719 53.4883,-37.6797c6.60156,-18.5117 6.60156,-34.375 4.61719,-37.6836c-1.97656,-3.30469 -7.26172,-5.28516 -15.1836,-9.25391Z" transform="translate(0.25, 0)"></path>
    </g>
</svg>